<mxfile host="app.diagrams.net" modified="2022-11-12T06:28:13.051Z" agent="5.0 (X11; Linux x86_64) AppleWebKit/537.36 (KHTML, like Gecko) Chrome/107.0.0.0 Safari/537.36" etag="ngd_jIy1egOI_tW2jEE1" version="20.5.3" type="github">
  <diagram id="_CldqJKMiVGIc7HYz8Ag" name="Page-1">
    <mxGraphModel dx="579" dy="1156" grid="1" gridSize="10" guides="1" tooltips="0" connect="1" arrows="1" fold="0" page="1" pageScale="1" pageWidth="1169" pageHeight="827" math="0" shadow="0">
      <root>
        <mxCell id="0" />
        <mxCell id="1" parent="0" />
        <mxCell id="CLgD5J_0y6YPSVe-xC8q-4" value="" style="edgeStyle=orthogonalEdgeStyle;rounded=0;orthogonalLoop=1;jettySize=auto;html=1;" edge="1" parent="1" source="CLgD5J_0y6YPSVe-xC8q-1" target="CLgD5J_0y6YPSVe-xC8q-3">
          <mxGeometry relative="1" as="geometry" />
        </mxCell>
        <mxCell id="CLgD5J_0y6YPSVe-xC8q-20" value="&lt;b&gt;Login&lt;/b&gt;" style="edgeLabel;html=1;align=center;verticalAlign=middle;resizable=0;points=[];" vertex="1" connectable="0" parent="CLgD5J_0y6YPSVe-xC8q-4">
          <mxGeometry x="0.1093" relative="1" as="geometry">
            <mxPoint x="-8" y="-10" as="offset" />
          </mxGeometry>
        </mxCell>
        <mxCell id="CLgD5J_0y6YPSVe-xC8q-1" value="&lt;b&gt;&lt;br&gt;DOCUSIGN LOGIN PAGE&lt;/b&gt;&lt;br&gt;&lt;blockquote style=&quot;margin: 0 0 0 40px; border: none; padding: 0px;&quot;&gt;&lt;div style=&quot;text-align: left;&quot;&gt;&lt;span style=&quot;background-color: initial;&quot;&gt;&lt;br&gt;&lt;/span&gt;&lt;/div&gt;&lt;div style=&quot;text-align: left;&quot;&gt;&lt;span style=&quot;background-color: initial;&quot;&gt;Login&lt;/span&gt;&lt;/div&gt;&lt;span style=&quot;background-color: initial;&quot;&gt;&lt;div style=&quot;text-align: left;&quot;&gt;&lt;span style=&quot;background-color: initial;&quot;&gt;Support&amp;nbsp;&lt;/span&gt;&lt;/div&gt;&lt;/span&gt;&lt;span style=&quot;background-color: initial;&quot;&gt;&lt;div style=&quot;text-align: left;&quot;&gt;&lt;span style=&quot;background-color: initial;&quot;&gt;Access document&lt;/span&gt;&lt;/div&gt;&lt;/span&gt;&lt;/blockquote&gt;" style="rounded=1;whiteSpace=wrap;html=1;" vertex="1" parent="1">
          <mxGeometry x="20" y="-613.5" width="150" height="103" as="geometry" />
        </mxCell>
        <mxCell id="CLgD5J_0y6YPSVe-xC8q-7" value="" style="edgeStyle=orthogonalEdgeStyle;rounded=0;orthogonalLoop=1;jettySize=auto;html=1;" edge="1" parent="1" source="CLgD5J_0y6YPSVe-xC8q-3" target="CLgD5J_0y6YPSVe-xC8q-6">
          <mxGeometry relative="1" as="geometry" />
        </mxCell>
        <mxCell id="CLgD5J_0y6YPSVe-xC8q-21" value="&lt;b&gt;&amp;nbsp;Account Creation&amp;nbsp;&lt;/b&gt;" style="edgeLabel;html=1;align=center;verticalAlign=middle;resizable=0;points=[];" vertex="1" connectable="0" parent="CLgD5J_0y6YPSVe-xC8q-7">
          <mxGeometry x="-0.1482" y="-1" relative="1" as="geometry">
            <mxPoint as="offset" />
          </mxGeometry>
        </mxCell>
        <mxCell id="CLgD5J_0y6YPSVe-xC8q-100" style="edgeStyle=orthogonalEdgeStyle;rounded=0;orthogonalLoop=1;jettySize=auto;html=1;entryX=0.003;entryY=0.081;entryDx=0;entryDy=0;entryPerimeter=0;" edge="1" parent="1" source="CLgD5J_0y6YPSVe-xC8q-3" target="CLgD5J_0y6YPSVe-xC8q-65">
          <mxGeometry relative="1" as="geometry" />
        </mxCell>
        <mxCell id="CLgD5J_0y6YPSVe-xC8q-3" value="&lt;blockquote style=&quot;margin: 0 0 0 40px; border: none; padding: 0px;&quot;&gt;&lt;/blockquote&gt;&lt;b&gt;&lt;span style=&quot;background-color: initial;&quot;&gt;Log In (Sign In)&lt;/span&gt;&lt;br&gt;&lt;span style=&quot;background-color: initial;&quot;&gt;No Account (Sign Up)&lt;/span&gt;&lt;/b&gt;" style="whiteSpace=wrap;html=1;rounded=1;align=left;" vertex="1" parent="1">
          <mxGeometry x="225" y="-592" width="130" height="60" as="geometry" />
        </mxCell>
        <mxCell id="CLgD5J_0y6YPSVe-xC8q-10" value="" style="edgeStyle=orthogonalEdgeStyle;rounded=0;orthogonalLoop=1;jettySize=auto;html=1;" edge="1" parent="1" source="CLgD5J_0y6YPSVe-xC8q-6" target="CLgD5J_0y6YPSVe-xC8q-9">
          <mxGeometry relative="1" as="geometry" />
        </mxCell>
        <mxCell id="CLgD5J_0y6YPSVe-xC8q-6" value="&lt;div style=&quot;text-align: center;&quot;&gt;&lt;b style=&quot;background-color: initial;&quot;&gt;DETAILS&lt;/b&gt;&lt;br&gt;&lt;/div&gt;&lt;div style=&quot;text-align: center;&quot;&gt;&lt;b style=&quot;background-color: initial;&quot;&gt;&lt;br&gt;&lt;/b&gt;&lt;/div&gt;&lt;blockquote style=&quot;margin: 0 0 0 40px; border: none; padding: 0px;&quot;&gt;&lt;div style=&quot;&quot;&gt;&lt;span style=&quot;background-color: initial;&quot;&gt;Email&lt;/span&gt;&lt;/div&gt;&lt;div style=&quot;&quot;&gt;&lt;span style=&quot;background-color: initial;&quot;&gt;Reason For Trial&lt;/span&gt;&lt;/div&gt;&lt;/blockquote&gt;" style="whiteSpace=wrap;html=1;rounded=1;align=left;" vertex="1" parent="1">
          <mxGeometry x="220" y="-479.08" width="140" height="59.58" as="geometry" />
        </mxCell>
        <mxCell id="CLgD5J_0y6YPSVe-xC8q-14" value="" style="edgeStyle=orthogonalEdgeStyle;rounded=0;orthogonalLoop=1;jettySize=auto;html=1;" edge="1" parent="1" source="CLgD5J_0y6YPSVe-xC8q-9" target="CLgD5J_0y6YPSVe-xC8q-13">
          <mxGeometry relative="1" as="geometry" />
        </mxCell>
        <mxCell id="CLgD5J_0y6YPSVe-xC8q-9" value="&lt;b style=&quot;background-color: initial;&quot;&gt;BASIC INFO PAGE&lt;/b&gt;&lt;br&gt;&lt;blockquote style=&quot;margin: 0 0 0 40px; border: none; padding: 0px;&quot;&gt;&lt;span style=&quot;background-color: initial;&quot;&gt;&lt;div style=&quot;text-align: left;&quot;&gt;&lt;span style=&quot;background-color: initial;&quot;&gt;First Name&lt;/span&gt;&lt;/div&gt;&lt;/span&gt;&lt;span style=&quot;background-color: initial;&quot;&gt;&lt;div style=&quot;text-align: left;&quot;&gt;&lt;span style=&quot;background-color: initial;&quot;&gt;Last Name&lt;/span&gt;&lt;/div&gt;&lt;/span&gt;&lt;span style=&quot;background-color: initial;&quot;&gt;&lt;div style=&quot;text-align: left;&quot;&gt;&lt;span style=&quot;background-color: initial;&quot;&gt;Phone No.&lt;/span&gt;&lt;/div&gt;&lt;/span&gt;&lt;/blockquote&gt;" style="whiteSpace=wrap;html=1;align=center;rounded=1;" vertex="1" parent="1">
          <mxGeometry x="222.5" y="-389.5" width="135" height="80" as="geometry" />
        </mxCell>
        <mxCell id="CLgD5J_0y6YPSVe-xC8q-99" style="edgeStyle=orthogonalEdgeStyle;rounded=0;orthogonalLoop=1;jettySize=auto;html=1;" edge="1" parent="1" target="CLgD5J_0y6YPSVe-xC8q-91">
          <mxGeometry relative="1" as="geometry">
            <mxPoint x="290" y="-230" as="sourcePoint" />
          </mxGeometry>
        </mxCell>
        <mxCell id="CLgD5J_0y6YPSVe-xC8q-13" value="&lt;b&gt;MAIL VERIFICATION&lt;/b&gt;" style="whiteSpace=wrap;html=1;rounded=1;" vertex="1" parent="1">
          <mxGeometry x="222.5" y="-279.5" width="135" height="60" as="geometry" />
        </mxCell>
        <mxCell id="CLgD5J_0y6YPSVe-xC8q-54" value="" style="edgeStyle=orthogonalEdgeStyle;rounded=0;orthogonalLoop=1;jettySize=auto;html=1;" edge="1" parent="1" source="CLgD5J_0y6YPSVe-xC8q-42" target="CLgD5J_0y6YPSVe-xC8q-53">
          <mxGeometry relative="1" as="geometry" />
        </mxCell>
        <mxCell id="CLgD5J_0y6YPSVe-xC8q-42" value="&lt;div style=&quot;text-align: left;&quot;&gt;&lt;span style=&quot;background-color: initial;&quot;&gt;&lt;b&gt;&amp;nbsp; &amp;nbsp; &amp;nbsp; &amp;nbsp; &amp;nbsp; &amp;nbsp; &amp;nbsp; MANAGE PAGE&lt;/b&gt;&lt;/span&gt;&lt;/div&gt;&lt;div style=&quot;text-align: left;&quot;&gt;&lt;span style=&quot;background-color: initial;&quot;&gt;&lt;b&gt;&lt;br&gt;&lt;/b&gt;&lt;/span&gt;&lt;/div&gt;&lt;blockquote style=&quot;margin: 0 0 0 40px; border: none; padding: 0px;&quot;&gt;&lt;div style=&quot;text-align: left;&quot;&gt;&lt;span style=&quot;background-color: initial;&quot;&gt;&lt;b&gt;Envelopes&lt;/b&gt;&lt;/span&gt;&lt;/div&gt;&lt;/blockquote&gt;&lt;blockquote style=&quot;margin: 0 0 0 40px; border: none; padding: 0px;&quot;&gt;&lt;blockquote style=&quot;margin: 0 0 0 40px; border: none; padding: 0px;&quot;&gt;&lt;div style=&quot;text-align: left;&quot;&gt;&lt;span style=&quot;background-color: initial;&quot;&gt;Inbox&lt;/span&gt;&lt;/div&gt;&lt;/blockquote&gt;&lt;blockquote style=&quot;margin: 0 0 0 40px; border: none; padding: 0px;&quot;&gt;&lt;div style=&quot;text-align: left;&quot;&gt;&lt;span style=&quot;background-color: initial;&quot;&gt;Sent&lt;/span&gt;&lt;/div&gt;&lt;/blockquote&gt;&lt;blockquote style=&quot;margin: 0 0 0 40px; border: none; padding: 0px;&quot;&gt;&lt;div style=&quot;text-align: left;&quot;&gt;&lt;span style=&quot;background-color: initial;&quot;&gt;Draft&lt;/span&gt;&lt;/div&gt;&lt;/blockquote&gt;&lt;blockquote style=&quot;margin: 0 0 0 40px; border: none; padding: 0px;&quot;&gt;&lt;div style=&quot;text-align: left;&quot;&gt;&lt;span style=&quot;background-color: initial;&quot;&gt;Deleted&lt;/span&gt;&lt;/div&gt;&lt;/blockquote&gt;&lt;/blockquote&gt;&lt;blockquote style=&quot;margin: 0 0 0 40px; border: none; padding: 0px;&quot;&gt;&lt;div style=&quot;text-align: left;&quot;&gt;&lt;span style=&quot;background-color: initial;&quot;&gt;&lt;b&gt;Quick Views&lt;/b&gt;&lt;/span&gt;&lt;/div&gt;&lt;/blockquote&gt;&lt;blockquote style=&quot;margin: 0 0 0 40px; border: none; padding: 0px;&quot;&gt;&lt;blockquote style=&quot;margin: 0 0 0 40px; border: none; padding: 0px;&quot;&gt;&lt;div style=&quot;text-align: left;&quot;&gt;&lt;span style=&quot;background-color: initial;&quot;&gt;Action required&lt;/span&gt;&lt;/div&gt;&lt;/blockquote&gt;&lt;blockquote style=&quot;margin: 0 0 0 40px; border: none; padding: 0px;&quot;&gt;&lt;div style=&quot;text-align: left;&quot;&gt;&lt;span style=&quot;background-color: initial;&quot;&gt;Waiting for others&lt;/span&gt;&lt;/div&gt;&lt;/blockquote&gt;&lt;blockquote style=&quot;margin: 0 0 0 40px; border: none; padding: 0px;&quot;&gt;&lt;div style=&quot;text-align: left;&quot;&gt;&lt;span style=&quot;background-color: initial;&quot;&gt;Expiring soon&lt;/span&gt;&lt;/div&gt;&lt;/blockquote&gt;&lt;blockquote style=&quot;margin: 0 0 0 40px; border: none; padding: 0px;&quot;&gt;&lt;div style=&quot;text-align: left;&quot;&gt;&lt;span style=&quot;background-color: initial;&quot;&gt;Authentication failed&lt;/span&gt;&lt;/div&gt;&lt;/blockquote&gt;&lt;/blockquote&gt;&lt;blockquote style=&quot;margin: 0 0 0 40px; border: none; padding: 0px;&quot;&gt;&lt;div style=&quot;text-align: left;&quot;&gt;&lt;span style=&quot;background-color: initial;&quot;&gt;&lt;b&gt;Folders (Customizable)&lt;/b&gt;&lt;/span&gt;&lt;/div&gt;&lt;/blockquote&gt;" style="whiteSpace=wrap;html=1;align=center;rounded=1;" vertex="1" parent="1">
          <mxGeometry x="660" y="-607" width="200" height="200" as="geometry" />
        </mxCell>
        <mxCell id="CLgD5J_0y6YPSVe-xC8q-49" value="&lt;b&gt;&lt;br&gt;&lt;div style=&quot;text-align: center;&quot;&gt;&lt;b style=&quot;background-color: initial;&quot;&gt;TEMPLATES PAGE&lt;/b&gt;&lt;/div&gt;&lt;div style=&quot;text-align: center;&quot;&gt;&lt;b style=&quot;background-color: initial;&quot;&gt;&lt;br&gt;&lt;/b&gt;&lt;/div&gt;&lt;/b&gt;&lt;blockquote style=&quot;margin: 0 0 0 40px; border: none; padding: 0px;&quot;&gt;&lt;b style=&quot;background-color: initial;&quot;&gt;Templates&lt;/b&gt;&lt;/blockquote&gt;&lt;blockquote style=&quot;margin: 0 0 0 40px; border: none; padding: 0px;&quot;&gt;&lt;blockquote style=&quot;margin: 0 0 0 40px; border: none; padding: 0px;&quot;&gt;&lt;span style=&quot;background-color: initial;&quot;&gt;My Templates&lt;/span&gt;&lt;/blockquote&gt;&lt;blockquote style=&quot;margin: 0 0 0 40px; border: none; padding: 0px;&quot;&gt;&lt;span style=&quot;background-color: initial;&quot;&gt;Shared with me&lt;/span&gt;&lt;/blockquote&gt;&lt;blockquote style=&quot;margin: 0 0 0 40px; border: none; padding: 0px;&quot;&gt;&lt;span style=&quot;background-color: initial;&quot;&gt;All Templates&lt;/span&gt;&lt;/blockquote&gt;&lt;blockquote style=&quot;margin: 0 0 0 40px; border: none; padding: 0px;&quot;&gt;&lt;span style=&quot;background-color: initial;&quot;&gt;Favourites&lt;/span&gt;&lt;/blockquote&gt;&lt;blockquote style=&quot;margin: 0 0 0 40px; border: none; padding: 0px;&quot;&gt;&lt;span style=&quot;background-color: initial;&quot;&gt;Deleted&lt;/span&gt;&lt;/blockquote&gt;&lt;/blockquote&gt;&lt;blockquote style=&quot;margin: 0 0 0 40px; border: none; padding: 0px;&quot;&gt;&lt;b style=&quot;background-color: initial;&quot;&gt;Folders&lt;br&gt;&lt;/b&gt;&lt;b style=&quot;background-color: initial;&quot;&gt;Shared Folders&lt;/b&gt;&lt;/blockquote&gt;" style="whiteSpace=wrap;html=1;align=left;rounded=1;" vertex="1" parent="1">
          <mxGeometry x="683.75" y="-352" width="172.5" height="165" as="geometry" />
        </mxCell>
        <mxCell id="CLgD5J_0y6YPSVe-xC8q-51" value="&lt;div style=&quot;text-align: center;&quot;&gt;&lt;b style=&quot;background-color: initial;&quot;&gt;REPORTS&lt;/b&gt;&lt;/div&gt;&lt;br&gt;&lt;blockquote style=&quot;margin: 0 0 0 40px; border: none; padding: 0px;&quot;&gt;&lt;div style=&quot;&quot;&gt;&lt;b style=&quot;background-color: initial;&quot;&gt;Dashboards&lt;/b&gt;&lt;br&gt;&lt;/div&gt;&lt;b style=&quot;background-color: initial;&quot;&gt;&lt;div style=&quot;&quot;&gt;&lt;b style=&quot;background-color: initial;&quot;&gt;Report Type&lt;/b&gt;&lt;/div&gt;&lt;/b&gt;&lt;/blockquote&gt;" style="whiteSpace=wrap;html=1;rounded=1;align=left;" vertex="1" parent="1">
          <mxGeometry x="701.25" y="-782" width="137.5" height="67" as="geometry" />
        </mxCell>
        <mxCell id="CLgD5J_0y6YPSVe-xC8q-53" value="&lt;div&gt;&lt;b&gt;&lt;br&gt;&lt;/b&gt;&lt;/div&gt;&lt;div&gt;&lt;b&gt;&amp;nbsp; &amp;nbsp;GET STARTED WITH YOUR E-SIGNATURE&lt;/b&gt;&lt;/div&gt;&lt;div&gt;&lt;b&gt;&lt;br&gt;&lt;/b&gt;&lt;/div&gt;&lt;blockquote style=&quot;margin: 0 0 0 40px; border: none; padding: 0px;&quot;&gt;&lt;/blockquote&gt;&lt;blockquote style=&quot;margin: 0 0 0 40px; border: none; padding: 0px;&quot;&gt;&lt;i&gt;&lt;span style=&quot;background-color: initial;&quot;&gt;Sign up now&lt;br&gt;&lt;/span&gt;&lt;span style=&quot;background-color: initial;&quot;&gt;Adopt your signature&lt;br&gt;&lt;/span&gt;&lt;span style=&quot;background-color: initial;&quot;&gt;Send documents for signatures&lt;br&gt;&lt;/span&gt;&lt;span style=&quot;background-color: initial;&quot;&gt;Create a template&lt;br&gt;&lt;/span&gt;&lt;span style=&quot;background-color: initial;&quot;&gt;Upload your photo&lt;br&gt;&lt;/span&gt;&lt;span style=&quot;background-color: initial;&quot;&gt;Brand your account&lt;/span&gt;&lt;/i&gt;&lt;/blockquote&gt;&lt;blockquote style=&quot;margin: 0 0 0 40px; border: none; padding: 0px;&quot;&gt;&lt;/blockquote&gt;&lt;blockquote style=&quot;margin: 0 0 0 40px; border: none; padding: 0px;&quot;&gt;&lt;/blockquote&gt;&lt;blockquote style=&quot;margin: 0 0 0 40px; border: none; padding: 0px;&quot;&gt;&lt;/blockquote&gt;&lt;blockquote style=&quot;margin: 0 0 0 40px; border: none; padding: 0px;&quot;&gt;&lt;/blockquote&gt;" style="whiteSpace=wrap;html=1;rounded=1;align=left;" vertex="1" parent="1">
          <mxGeometry x="900" y="-574.5" width="260" height="135" as="geometry" />
        </mxCell>
        <mxCell id="CLgD5J_0y6YPSVe-xC8q-65" value="HOME PAGE" style="swimlane;fontStyle=0;childLayout=stackLayout;horizontal=1;startSize=30;horizontalStack=0;resizeParent=1;resizeParentMax=0;resizeLast=0;collapsible=1;marginBottom=0;whiteSpace=wrap;html=1;" vertex="1" parent="1">
          <mxGeometry x="440" y="-612" width="140" height="210" as="geometry" />
        </mxCell>
        <mxCell id="CLgD5J_0y6YPSVe-xC8q-66" value="Reports" style="text;strokeColor=none;fillColor=none;align=left;verticalAlign=middle;spacingLeft=4;spacingRight=4;overflow=hidden;points=[[0,0.5],[1,0.5]];portConstraint=eastwest;rotatable=0;whiteSpace=wrap;html=1;" vertex="1" parent="CLgD5J_0y6YPSVe-xC8q-65">
          <mxGeometry y="30" width="140" height="30" as="geometry" />
        </mxCell>
        <mxCell id="CLgD5J_0y6YPSVe-xC8q-67" value="Manage" style="text;strokeColor=none;fillColor=none;align=left;verticalAlign=middle;spacingLeft=4;spacingRight=4;overflow=hidden;points=[[0,0.5],[1,0.5]];portConstraint=eastwest;rotatable=0;whiteSpace=wrap;html=1;" vertex="1" parent="CLgD5J_0y6YPSVe-xC8q-65">
          <mxGeometry y="60" width="140" height="30" as="geometry" />
        </mxCell>
        <mxCell id="CLgD5J_0y6YPSVe-xC8q-69" value="Settings" style="text;strokeColor=none;fillColor=none;align=left;verticalAlign=middle;spacingLeft=4;spacingRight=4;overflow=hidden;points=[[0,0.5],[1,0.5]];portConstraint=eastwest;rotatable=0;whiteSpace=wrap;html=1;" vertex="1" parent="CLgD5J_0y6YPSVe-xC8q-65">
          <mxGeometry y="90" width="140" height="30" as="geometry" />
        </mxCell>
        <mxCell id="CLgD5J_0y6YPSVe-xC8q-70" value="View plans" style="text;strokeColor=none;fillColor=none;align=left;verticalAlign=middle;spacingLeft=4;spacingRight=4;overflow=hidden;points=[[0,0.5],[1,0.5]];portConstraint=eastwest;rotatable=0;whiteSpace=wrap;html=1;" vertex="1" parent="CLgD5J_0y6YPSVe-xC8q-65">
          <mxGeometry y="120" width="140" height="30" as="geometry" />
        </mxCell>
        <mxCell id="CLgD5J_0y6YPSVe-xC8q-71" value="Profile" style="text;strokeColor=none;fillColor=none;align=left;verticalAlign=middle;spacingLeft=4;spacingRight=4;overflow=hidden;points=[[0,0.5],[1,0.5]];portConstraint=eastwest;rotatable=0;whiteSpace=wrap;html=1;" vertex="1" parent="CLgD5J_0y6YPSVe-xC8q-65">
          <mxGeometry y="150" width="140" height="30" as="geometry" />
        </mxCell>
        <mxCell id="CLgD5J_0y6YPSVe-xC8q-68" value="Templates" style="text;strokeColor=none;fillColor=none;align=left;verticalAlign=middle;spacingLeft=4;spacingRight=4;overflow=hidden;points=[[0,0.5],[1,0.5]];portConstraint=eastwest;rotatable=0;whiteSpace=wrap;html=1;" vertex="1" parent="CLgD5J_0y6YPSVe-xC8q-65">
          <mxGeometry y="180" width="140" height="30" as="geometry" />
        </mxCell>
        <mxCell id="CLgD5J_0y6YPSVe-xC8q-83" style="edgeStyle=orthogonalEdgeStyle;rounded=0;orthogonalLoop=1;jettySize=auto;html=1;entryX=0.002;entryY=0.352;entryDx=0;entryDy=0;entryPerimeter=0;" edge="1" parent="1" source="CLgD5J_0y6YPSVe-xC8q-67" target="CLgD5J_0y6YPSVe-xC8q-42">
          <mxGeometry relative="1" as="geometry" />
        </mxCell>
        <mxCell id="CLgD5J_0y6YPSVe-xC8q-86" style="edgeStyle=orthogonalEdgeStyle;rounded=0;orthogonalLoop=1;jettySize=auto;html=1;" edge="1" parent="1" source="CLgD5J_0y6YPSVe-xC8q-66" target="CLgD5J_0y6YPSVe-xC8q-51">
          <mxGeometry relative="1" as="geometry">
            <Array as="points">
              <mxPoint x="630" y="-567" />
              <mxPoint x="630" y="-672" />
              <mxPoint x="770" y="-672" />
            </Array>
          </mxGeometry>
        </mxCell>
        <mxCell id="CLgD5J_0y6YPSVe-xC8q-87" style="edgeStyle=orthogonalEdgeStyle;rounded=0;orthogonalLoop=1;jettySize=auto;html=1;entryX=0.002;entryY=0.56;entryDx=0;entryDy=0;entryPerimeter=0;" edge="1" parent="1" source="CLgD5J_0y6YPSVe-xC8q-68" target="CLgD5J_0y6YPSVe-xC8q-49">
          <mxGeometry relative="1" as="geometry" />
        </mxCell>
        <mxCell id="CLgD5J_0y6YPSVe-xC8q-91" value="&lt;b&gt;My Profile&lt;/b&gt;" style="swimlane;fontStyle=0;childLayout=stackLayout;horizontal=1;startSize=30;horizontalStack=0;resizeParent=1;resizeParentMax=0;resizeLast=0;collapsible=1;marginBottom=0;whiteSpace=wrap;html=1;" vertex="1" parent="1">
          <mxGeometry x="245" y="-190" width="90" height="180" as="geometry" />
        </mxCell>
        <mxCell id="CLgD5J_0y6YPSVe-xC8q-92" value="&lt;b&gt;Info&lt;/b&gt;" style="text;strokeColor=none;fillColor=none;align=center;verticalAlign=middle;spacingLeft=4;spacingRight=4;overflow=hidden;points=[[0,0.5],[1,0.5]];portConstraint=eastwest;rotatable=0;whiteSpace=wrap;html=1;" vertex="1" parent="CLgD5J_0y6YPSVe-xC8q-91">
          <mxGeometry y="30" width="90" height="30" as="geometry" />
        </mxCell>
        <mxCell id="CLgD5J_0y6YPSVe-xC8q-93" value="Name" style="text;strokeColor=none;fillColor=none;align=left;verticalAlign=middle;spacingLeft=4;spacingRight=4;overflow=hidden;points=[[0,0.5],[1,0.5]];portConstraint=eastwest;rotatable=0;whiteSpace=wrap;html=1;" vertex="1" parent="CLgD5J_0y6YPSVe-xC8q-91">
          <mxGeometry y="60" width="90" height="30" as="geometry" />
        </mxCell>
        <mxCell id="CLgD5J_0y6YPSVe-xC8q-94" value="Phone" style="text;strokeColor=none;fillColor=none;align=left;verticalAlign=middle;spacingLeft=4;spacingRight=4;overflow=hidden;points=[[0,0.5],[1,0.5]];portConstraint=eastwest;rotatable=0;whiteSpace=wrap;html=1;" vertex="1" parent="CLgD5J_0y6YPSVe-xC8q-91">
          <mxGeometry y="90" width="90" height="30" as="geometry" />
        </mxCell>
        <mxCell id="CLgD5J_0y6YPSVe-xC8q-97" value="Email" style="text;strokeColor=none;fillColor=none;align=left;verticalAlign=middle;spacingLeft=4;spacingRight=4;overflow=hidden;points=[[0,0.5],[1,0.5]];portConstraint=eastwest;rotatable=0;whiteSpace=wrap;html=1;" vertex="1" parent="CLgD5J_0y6YPSVe-xC8q-91">
          <mxGeometry y="120" width="90" height="30" as="geometry" />
        </mxCell>
        <mxCell id="CLgD5J_0y6YPSVe-xC8q-98" value="Address" style="text;strokeColor=none;fillColor=none;align=left;verticalAlign=middle;spacingLeft=4;spacingRight=4;overflow=hidden;points=[[0,0.5],[1,0.5]];portConstraint=eastwest;rotatable=0;whiteSpace=wrap;html=1;" vertex="1" parent="CLgD5J_0y6YPSVe-xC8q-91">
          <mxGeometry y="150" width="90" height="30" as="geometry" />
        </mxCell>
        <mxCell id="CLgD5J_0y6YPSVe-xC8q-102" value="&lt;b&gt;&lt;font style=&quot;font-size: 18px;&quot;&gt;DOCUSIGN SITEMAP&lt;/font&gt;&lt;/b&gt;" style="text;html=1;align=center;verticalAlign=middle;resizable=0;points=[];autosize=1;strokeColor=none;fillColor=none;" vertex="1" parent="1">
          <mxGeometry x="430" y="-810" width="210" height="40" as="geometry" />
        </mxCell>
        <mxCell id="CLgD5J_0y6YPSVe-xC8q-104" style="edgeStyle=orthogonalEdgeStyle;rounded=0;orthogonalLoop=1;jettySize=auto;html=1;entryX=1;entryY=0.1;entryDx=0;entryDy=0;entryPerimeter=0;fontSize=18;" edge="1" parent="1" source="CLgD5J_0y6YPSVe-xC8q-71" target="CLgD5J_0y6YPSVe-xC8q-91">
          <mxGeometry relative="1" as="geometry">
            <Array as="points">
              <mxPoint x="400" y="-447" />
              <mxPoint x="400" y="-172" />
            </Array>
          </mxGeometry>
        </mxCell>
      </root>
    </mxGraphModel>
  </diagram>
</mxfile>
